<svg id="iconz00516414161152347500" viewBox="50 25 402 402" xmlns="http://www.w3.org/2000/svg"><style>.eyeB,.mayugeB{fill:#232256}</style><g class="icosvg"><path d="M370.823 211.357h-1.083C365.238 142.073 331.823 86.564 256 86.564s-109.237 55.509-113.74 124.793h-1.083c-14.838-8.773-36.38 8.077-32.988 28.423 7.12 42.713 9.938 53.304 22.629 59.716 6.476 3.272 12.413 3.387 12.413 3.387h1.277c4.228 26.866 12.675 59.487 23.503 74.569 16.545 23.046 59.074 34.291 87.989 34.291s71.445-11.245 87.989-34.291c10.828-15.082 19.275-47.702 23.503-74.569h1.277s5.937-.115 12.413-3.387c12.691-6.413 15.509-17.004 22.629-59.716 3.392-20.346-18.15-37.196-32.988-28.423z" fill="#fff"/><path d="M409.44 235.493c-.007-8.856-3.759-16.746-9.241-22.42-2.749-2.844-5.951-5.161-9.439-6.793-3.486-1.629-7.276-2.577-11.159-2.578-1.63-.003-3.272.212-4.9.57-.983-13.188-2.832-25.499-5.651-36.861-3.34-13.458-8.036-25.598-14.265-36.257-9.328-15.988-22.182-28.614-38.667-37.072-16.484-8.473-36.469-12.797-60.118-12.795-21.025-.001-39.144 3.413-54.496 10.125-11.509 5.029-21.436 11.923-29.755 20.487-12.491 12.85-21.327 29.381-27.016 48.893-3.834 13.15-6.231 27.701-7.407 43.486-1.638-.362-3.291-.578-4.929-.576-3.884.001-7.675.949-11.161 2.578-5.23 2.452-9.827 6.427-13.198 11.446-3.361 5.014-5.486 11.134-5.486 17.767a30.979 30.979 0 0 0 .432 5.166l-.001-.011c3.584 21.412 6.032 34.841 9.469 44.399 1.725 4.772 3.763 8.644 6.442 11.822 2.67 3.182 5.926 5.521 9.544 7.338A38.5 38.5 0 0 0 139.6 307.8c1.376 9.447 3.134 18.563 5.262 27.089 4.692 18.698 10.977 34.614 18.863 45.642 4.649 6.467 10.932 11.891 18.12 16.458 10.792 6.842 23.668 11.792 36.674 15.097 13.008 3.296 26.13 4.932 37.482 4.935 15.129-.011 33.429-2.899 50.371-8.798 8.468-2.956 16.59-6.67 23.784-11.235 7.187-4.567 13.471-9.991 18.12-16.458 7.886-11.028 14.17-26.944 18.862-45.641 2.129-8.525 3.885-17.642 5.262-27.089a38.468 38.468 0 0 0 11.162-3.593c3.616-1.817 6.874-4.156 9.544-7.338 2.006-2.378 3.661-5.163 5.084-8.407 2.134-4.876 3.799-10.804 5.477-18.525 1.673-7.721 3.342-17.25 5.35-29.288l.096-.578-.095.569c.286-1.737.423-3.457.422-5.147zm-10.834 3.42c-3.537 21.3-6.057 34.523-8.982 42.541-1.454 4.017-2.946 6.664-4.588 8.611-1.65 1.943-3.504 3.332-6.233 4.721a26.941 26.941 0 0 1-4.971 1.899 323.797 323.797 0 0 0 1.719-23.763 5.276 5.276 0 1 0-10.546-.37h-.001c-.738 21.113-3.637 41.906-8.105 59.777-4.441 17.862-10.547 32.829-17.195 42.045-3.623 5.056-8.861 9.68-15.204 13.703-9.505 6.043-21.449 10.698-33.612 13.777-12.159 3.088-24.552 4.615-34.887 4.611-13.786.011-31.208-2.724-46.896-8.209-7.847-2.736-15.266-6.155-21.604-10.18-6.343-4.023-11.58-8.647-15.204-13.703-6.648-9.215-12.754-24.183-17.195-42.045-4.467-17.871-7.366-38.664-8.105-59.777a5.276 5.276 0 0 0-5.459-5.088 5.275 5.275 0 0 0-5.088 5.459c.281 8.018.867 15.98 1.719 23.775a26.72 26.72 0 0 1-4.972-1.911c-2.729-1.39-4.583-2.779-6.233-4.721-1.235-1.465-2.374-3.308-3.489-5.845-1.672-3.796-3.231-9.136-4.827-16.52-1.602-7.384-3.257-16.799-5.255-28.788l-.088-.52.087.509a20.407 20.407 0 0 1-.287-3.408c-.007-5.8 2.494-11.167 6.28-15.086 1.884-1.953 4.071-3.517 6.32-4.565 2.25-1.052 4.545-1.587 6.691-1.586 1.508.005 2.939.27 4.324.805a339.376 339.376 0 0 0-.274 13.017 5.278 5.278 0 0 0 10.554 0c-.001-21.772 2.004-41.254 6.192-58.125 3.141-12.656 7.502-23.838 13.134-33.473 8.464-14.452 19.707-25.453 34.382-33.011 14.674-7.544 32.907-11.626 55.293-11.627 19.894 0 36.518 3.229 50.265 9.241 10.316 4.514 19.038 10.586 26.416 18.173 11.054 11.376 19.124 26.238 24.454 44.493 5.326 18.242 7.867 39.835 7.864 64.33a5.277 5.277 0 1 0 10.554 0c0-4.431-.105-8.755-.268-13.02a11.94 11.94 0 0 1 4.315-.802c2.146-.001 4.44.533 6.689 1.585 3.375 1.57 6.598 4.315 8.897 7.759 2.307 3.449 3.701 7.533 3.701 11.893a21.372 21.372 0 0 1-.282 3.419z" fill="#232256"/><path d="M376.535 273.598V209.29h-17.062v37.641c0 20.798-2.137 32.531-3.736 36.797-1.598 4.27-5.864 12.802-2.667 17.067 3.202 4.266 2.667 21.333-3.731 23.466-6.403 2.137-7.467 10.134-6.933 17.067.53 6.933-5.869 12.802-13.336 13.87-7.467 1.064-6.398 1.064-14.4 11.733-7.997 10.664-13.598 5.597-9.867.797 3.422-4.392-9.333-12.53-3.464-12 5.864.534 2.667-7.467-4.266-19.73-6.938-12.267-27.202-12.802-41.067-3.736-13.87-9.066-34.134-8.531-41.067 3.736-6.933 12.263-10.134 20.264-4.266 19.73 5.864-.53-6.886 7.608-3.469 12 3.731 4.8-1.866 9.867-9.867-.797-8.002-10.669-6.933-10.669-14.4-11.733-7.467-1.069-13.866-6.938-13.331-13.87.53-6.933-.534-14.93-6.933-17.067-6.403-2.133-6.938-19.2-3.736-23.466 3.202-4.266-1.064-12.797-2.667-17.067-1.598-4.266-3.731-15.998-3.731-36.797V209.29h-17.067v64.308c0 15.998 1.598 12.797-5.334 21.862-6.933 9.07-3.202 17.602 4.8 20.803 8.002 3.197 8.536 10.134 5.869 18.131-2.667 8.002.53 16.003 7.997 19.734s7.467 10.669 9.6 19.2 11.733 12.802 19.2 13.866c7.467 1.069 4.613 10.833 11.733 18.666 2.667 2.934 9.07 6.136 16.538 4.537 7.462-1.603 12.684 2.456 18.666 14.133 3.919 7.65 17.508 7.725 25.308 2.325 3.469-2.4 7.842-2.47 11.325-.098 8.091 5.498 22.355 5.475 26.302-2.227 5.977-11.677 11.198-15.736 18.666-14.133 7.467 1.598 13.866-1.603 16.533-4.537 7.12-7.833 4.266-17.597 11.733-18.666 7.467-1.064 17.067-5.334 19.2-13.866s2.133-15.469 9.6-19.2 10.669-11.733 8.002-19.734c-2.667-7.997-2.133-14.934 5.864-18.131 8.002-3.202 11.733-11.733 4.8-20.803-6.938-9.066-5.339-5.864-5.339-21.862zm-94.932 112.265c-8.531 2.133-2.667 2.934-8.002 8.798-5.25 5.78-9.337-1.88-17.597-3.642-8.264 1.763-12.352 9.422-17.602 3.642-5.334-5.864.534-6.666-8.002-8.798-8.531-2.133-8.644-13.327-4.266-11.733 5.869 2.133 2.133-8.269 1.598-16.27-.53-7.997 1.603-15.998 8.536-14.4 6.769 1.566 11.03 5.095 19.664-.197h.141c8.634 5.292 12.891 1.763 19.659.197 6.938-1.598 9.07 6.403 8.536 14.4-.534 8.002-4.266 18.403 1.598 16.27 4.381-1.593 4.273 9.6-4.263 11.733z" fill="#232256"/><path d="M404.167 178.463c0-45.822-30.121-100.912-50.916-116.852C330.447 44.131 289.35 23.595 256 45.53c-29.838-31.317-76.184-6.833-107.554 22.032-19.941 18.349-46.084 73.85-49.369 116.582-4.429 57.592-9.969 72.912-15.468 85.722-1.689 3.935 2.422 7.767 6.273 5.896 16.724-8.126 27.786-24.086 32.051-32.109-4.875 12.934-17.647 48.895-25.925 64.79-1.5 2.881 1.166 6.133 4.317 5.347 40.915-10.204 42.905-41.054 42.905-41.054s-1.302 15.531 14.757 25.647C147.529 268.311 165.8 203.732 175 174.941c-4.204 16.421-7.752 45.074 5.665 76.196 1.134 2.631 5.06 1.973 5.217-.888 2.971-53.968 54.244-105.019 54.244-105.019-6.342 10.717-24.15 43.846-9.341 75.051 1.395 2.938 5.727 2.684 6.629-.441 9.449-32.759 43.345-38.03 45.008-74.61 0 0 20.071 37.966 16.089 67.223-.444 3.266 3.762 5.038 5.713 2.381 10.671-14.538 12.983-36.372 12.983-36.372s22.145 38.109 21.969 69.271c-.02 3.534 4.628 4.807 6.42 1.76 3.987-6.777 7.491-13.969 10.477-20.825l2.447 28.967c.123 1.464.79 2.566 1.707 3.308-2.241 15.086-4.695 28.203-6.981 33.267 18.211-5.271 17.031-14.733 17.031-14.733s13.763 20.282 33.891 30.826c-1.917-15.336-4.676-51.202-4.676-51.202s8.433 13.899 31.141 6.043c12.016-4.158-26.466-14.553-26.466-86.681zM242.772 355.115h26.456a4.08 4.08 0 0 0 0-8.159h-26.456a4.08 4.08 0 1 0 0 8.159" fill="#232256"/><path d="M254.205 316.103c-5.442-.609-3.998-7.833-.019-9.991 3.98-2.159 7.13 3.073 7.58 6.232.45 3.159.483 4.659-7.561 3.759z" fill="#fff"/><path d="M254.187 306.111c-2.367 5.583-3.553 9.178 1.814 9.178s5.156 3.335 0 3.335-8.016-2.177-7.467-6.258c.543-4.04 3.318-6.707 5.653-6.255z" fill="#232256"/><path class="eyeB" d="M230.199 269.811c-9.309-10.141-21.155-10.259-21.654-10.259-.499 0-12.335.117-21.659 10.275-1.441 1.669-1.212 2.89-.947 3.471a2.107 2.107 0 0 0 1.903 1.226c.591 0 1.118-.263 1.322-.581 2.59-2.079 7.109-4.259 11.381-5.534a8.056 8.056 0 0 0-.422 2.569c0 4.645 3.78 8.426 8.426 8.426 4.645 0 8.426-3.78 8.426-8.426 0-.87-.141-1.73-.422-2.569 4.273 1.273 8.777 3.441 11.25 5.398.335.455.862.717 1.451.717h.002c.813 0 1.561-.483 1.903-1.226.266-.58.495-1.801-.96-3.487zM325.107 269.811c-9.309-10.141-21.155-10.259-21.654-10.259-.499 0-12.335.117-21.659 10.275-1.441 1.669-1.212 2.89-.947 3.471a2.107 2.107 0 0 0 1.903 1.226c.591 0 1.118-.263 1.322-.581 2.59-2.079 7.109-4.259 11.381-5.534a8.056 8.056 0 0 0-.422 2.569c0 4.645 3.78 8.426 8.426 8.426s8.426-3.78 8.426-8.426c0-.87-.141-1.73-.422-2.569 4.273 1.275 8.78 3.441 11.25 5.398.335.455.862.717 1.451.717h.002c.813 0 1.561-.483 1.903-1.226.265-.58.495-1.801-.96-3.487z"/><g><path class="mayugeB" d="M238.445 253.95c.71.263 1.906-7.412.71-8.752-1.196-1.34-38.56-23.05-38.56-23.05s-8.072-6.736-15.247 12.132c1.794.066 53.097 19.67 53.097 19.67zM241.61 246.604c.903 3.371-.164 7.373 0 8.518.164 1.145 1.641 1.118 2.298-.362s.685-3.768.374-5.525c-.2-1.125-2.672-2.631-2.672-2.631z"/><g><path class="mayugeB" d="M273.555 253.95c-.71.263-1.906-7.412-.71-8.752 1.196-1.34 38.56-23.05 38.56-23.05s8.072-6.736 15.247 12.132c-1.794.066-53.097 19.67-53.097 19.67zM270.391 246.604c-.903 3.371.164 7.373 0 8.518-.164 1.145-1.641 1.118-2.298-.362s-.685-3.768-.374-5.525c.199-1.125 2.672-2.631 2.672-2.631z"/></g></g><g><path d="M369.089 236.719l-14.321 11.689c-1.517 1.239-3.26 2.141-5.099 2.809-.395-2.423-1.069-4.698-2.283-6.634-2.259-3.636-5.9-5.946-9.998-7.196-4.128-1.275-8.856-1.69-14.256-1.697-5.366.001-11.402.436-18.096 1.051-12.456 1.165-21.217 2.938-27.558 6.137-3.159 1.605-5.736 3.646-7.574 6.193-1.162 1.598-1.959 3.38-2.499 5.242-3.926-1.173-7.973-1.795-12.027-1.795-3.654 0-7.288.598-10.85 1.55-.54-1.772-1.315-3.468-2.425-4.997-2.783-3.839-7.112-6.457-12.804-8.34-5.724-1.888-12.987-3.127-22.332-3.99-6.693-.615-12.729-1.05-18.094-1.051-7.19.026-13.227.708-18.166 3.311-2.453 1.304-4.591 3.179-6.087 5.584-1.213 1.935-1.886 4.209-2.281 6.633-1.836-.667-3.58-1.57-5.098-2.809l-14.32-11.691a4.028 4.028 0 1 0-5.094 6.241l14.32 11.689a25.483 25.483 0 0 0 8.958 4.716l.866.253c.326 6.258 1.832 12.361 4.915 17.691 3.471 6.023 8.947 11.01 16.281 13.808 7.774 2.971 16.57 4.075 24.816 4.083 8.265-.009 15.929-1.114 21.586-2.886 3.036-.956 5.572-2.798 7.59-5.032 3.032-3.367 5.041-7.617 6.38-12.061 1.3-4.352 1.916-8.9 1.946-13.12 3.23-.982 6.557-1.525 9.894-1.525 3.735 0 7.469.614 11.049 1.846l.103.035c.09 5.562 1.178 11.671 3.511 17.111 1.22 2.823 2.779 5.469 4.804 7.712 2.018 2.234 4.554 4.077 7.589 5.033 5.658 1.773 13.322 2.878 21.589 2.887 8.246-.008 17.043-1.112 24.819-4.083 7.334-2.798 12.809-7.785 16.279-13.808 3.083-5.33 4.589-11.433 4.915-17.691l.861-.251a25.5 25.5 0 0 0 8.965-4.718l14.32-11.691a4.027 4.027 0 1 0-5.094-6.238zm-134.523 39.662c-.945 2.195-2.108 4.093-3.38 5.493-1.279 1.407-2.613 2.304-4.041 2.756-4.564 1.447-11.661 2.522-19.164 2.512-7.506.008-15.466-1.058-21.93-3.548-5.634-2.176-9.533-5.759-12.195-10.323-2.647-4.561-3.971-10.168-3.969-16.105 0-1.168.052-2.348.154-3.536.186-2.147.703-3.642 1.408-4.773 1.057-1.661 2.657-2.852 5.559-3.778 2.873-.902 6.906-1.339 11.864-1.332 4.929-.001 10.764.408 17.356 1.016 12.01 1.085 20.037 2.914 24.644 5.293 2.315 1.184 3.754 2.426 4.7 3.734.939 1.314 1.482 2.768 1.709 4.758a30.23 30.23 0 0 1 .169 3.26c.012 4.652-.979 10.191-2.884 14.573zm103.585-3.11c-2.663 4.564-6.561 8.147-12.193 10.323-6.466 2.49-14.428 3.557-21.933 3.548-7.504.009-14.602-1.065-19.167-2.514-1.424-.451-2.759-1.348-4.038-2.756-1.913-2.095-3.558-5.339-4.635-8.971-1.088-3.625-1.633-7.618-1.629-11.107 0-1.153.057-2.246.168-3.24l-1.772-.197-.001-.002 1.774.195c.227-1.99.771-3.445 1.711-4.76 1.396-1.944 4.011-3.821 8.807-5.411 4.763-1.583 11.53-2.793 20.535-3.616 6.593-.608 12.428-1.017 17.358-1.016 6.62-.026 11.556.807 14.362 2.354 1.42.771 2.348 1.629 3.063 2.757.705 1.131 1.223 2.626 1.41 4.772.101 1.184.152 2.365.152 3.536-.001 5.936-1.326 11.544-3.972 16.105z" fill="#232256"/></g></g></svg>